<svg xmlns="http://www.w3.org/2000/svg" xmlns:xlink="http://www.w3.org/1999/xlink" version="1.1" x="0px" y="0px" viewBox="0 0 100 100" style="enable-background:new 0 0 100 100;" xml:space="preserve"><path d="M80.6,9c-0.4-0.4-1-0.4-1.4,0L52.7,35.5c-0.4,0.4-0.4,1,0,1.4l4.6,4.6L56,42.9l-8.1-8.1c-0.4-0.4-1-0.4-1.4,0L41.3,40l-1-1  c2.3-2.3,3.6-5.4,3.6-8.7c0-3.3-1.3-6.4-3.6-8.7c-0.4-0.4-1-0.4-1.4,0l-8,8L29.3,28c0.5-1.1,0.3-2.5-0.6-3.4c-1.2-1.2-3.1-1.2-4.2,0  c-1.2,1.2-1.2,3.1,0,4.2c0.6,0.6,1.4,0.9,2.1,0.9c0.4,0,0.9-0.1,1.3-0.3l1.6,1.6l-8,8c-0.4,0.4-0.4,1,0,1.4c2.4,2.4,5.5,3.6,8.7,3.6  c3.1,0,6.3-1.2,8.7-3.6l1,1l-5.2,5.2c-0.4,0.4-0.4,1,0,1.4l8.1,8.1l-1.5,1.5l-4.6-4.6c-0.4-0.4-1-0.4-1.4,0L8.7,79.5  c-0.4,0.4-0.4,1,0,1.4l10.7,10.7c0.2,0.2,0.5,0.3,0.7,0.3s0.5-0.1,0.7-0.3L47.4,65c0.2-0.2,0.3-0.4,0.3-0.7s-0.1-0.5-0.3-0.7  L42.7,59l1.5-1.5l17,17c1.8,1.8,4.2,2.7,6.6,2.7s4.8-0.9,6.6-2.7c3.6-3.6,3.6-9.5,0-13.2l-17-17l1.4-1.4l4.6,4.6  c0.2,0.2,0.5,0.3,0.7,0.3s0.5-0.1,0.7-0.3l26.5-26.5c0.4-0.4,0.4-1,0-1.4L80.6,9z M25.9,27.4c-0.4-0.4-0.4-1,0-1.4  c0.2-0.2,0.4-0.3,0.7-0.3c0.3,0,0.5,0.1,0.7,0.3c0.4,0.4,0.4,1,0,1.4C26.9,27.8,26.3,27.8,25.9,27.4z M23.7,39.7l15.8-15.8  c1.5,1.8,2.3,4.1,2.3,6.5c0,2.8-1.1,5.3-3,7.3L37.6,39C33.8,42.8,27.8,43,23.7,39.7z M36,55l3.9,3.9l-3.9,3.9l-3.9-3.9L36,55z   M36.1,73.5l-3.9-3.9l3.9-3.9l3.9,3.9L36.1,73.5z M30.8,78.8l-3.9-3.9l3.9-3.9l3.9,3.9L30.8,78.8z M25.6,84l-3.9-3.9l3.9-3.9  l3.9,3.9L25.6,84z M20.1,70.9l3.9,3.9l-3.9,3.9l-3.9-3.9L20.1,70.9z M25.4,65.6l3.9,3.9l-3.9,3.9l-3.9-3.9L25.4,65.6z M30.8,68.1  l-3.9-3.9l3.9-3.9l3.9,3.9L30.8,68.1z M14.9,76.2l3.9,3.9l-4.1,4.1l-3.9-3.9L14.9,76.2z M20.1,89.5l-3.9-3.9l4.1-4.1l3.9,3.9  L20.1,89.5z M45.3,64.3l-3.9,3.9l-3.9-3.9l3.9-3.9L45.3,64.3z M73,73.1c-2.9,2.9-7.5,2.9-10.3,0L36.9,47.3l10.3-10.3L73,62.7  C75.8,65.6,75.8,70.2,73,73.1z M79.9,11.1l3.9,3.9L80,18.9L76.1,15L79.9,11.1z M80.1,29.5l-3.9-3.9l3.8-3.8l3.9,3.9L80.1,29.5z   M74.8,34.8l-3.9-3.9l3.8-3.8l3.9,3.9L74.8,34.8z M69.6,40l-3.9-3.9l3.8-3.8l3.9,3.9L69.6,40z M64.1,26.9l3.9,3.9l-3.8,3.8l-3.9-3.9  L64.1,26.9z M69.4,21.6l3.9,3.9l-3.8,3.8l-3.9-3.9L69.4,21.6z M74.8,24.2l-3.9-3.9l3.8-3.8l3.9,3.9L74.8,24.2z M54.8,36.2l4-4  l3.9,3.9l-4,4L54.8,36.2z M64.1,45.5l-3.9-3.9l4-4l3.9,3.9L64.1,45.5z M85.4,24.2l-3.9-3.9l3.8-3.8l3.9,3.9L85.4,24.2z"></path></svg>