<svg xmlns="http://www.w3.org/2000/svg" xmlns:xlink="http://www.w3.org/1999/xlink" version="1.1" x="0px" y="0px" viewBox="0 0 100 100" enable-background="new 0 0 100 100" xml:space="preserve"><g><path d="M61.46,40.31c4.46-6.1,9.97-15.51,16.29-27.86c0.75-1.46,1.51-2.98,2.28-4.54l-1.2-0.64c-0.75,1.51-1.51,3.03-2.29,4.56   C69.23,26.12,63.95,34.6,60.25,39.64c-0.83,1.12-1.58,2.07-2.26,2.88c-1.58,1.88-2.76,2.97-3.601,3.6   c-0.12,0.09-0.239,0.18-0.35,0.25c-0.15,0.11-0.3,0.2-0.44,0.28c-0.14,0.11-0.31,0.2-0.489,0.25c0,0.01,0,0.01-0.011,0   c-0.409,0.14-0.869,0.12-1.279-0.09c-0.42-0.22-0.7-0.57-0.83-0.98c-0.01-0.01-0.01-0.01,0-0.02c-0.06-0.17-0.09-0.35-0.08-0.52   c-0.02-0.16-0.03-0.35-0.04-0.54c0-0.13-0.01-0.28-0.01-0.43c0.03-1.05,0.22-2.64,0.82-5.03c0.261-1.02,0.59-2.18,1.021-3.51   c1.87-5.86,5.56-14.91,12.66-28.83l-1.2-0.65C58.02,18.35,53.74,28.11,51.45,35.19c-17.82-8.33-36.96-13.18-40.93-5.4   c-3.98,7.79,11.21,20.49,28.45,30.07c-4.55,6.08-10.21,15.699-16.72,28.42c-0.79,1.55-1.6,3.16-2.42,4.819l1.2,0.641   c0.79-1.61,1.6-3.221,2.43-4.84C29.92,76.27,35.66,66.56,40.17,60.52c1.22,0.66,2.44,1.301,3.66,1.921   c1.22,0.63,2.45,1.239,3.69,1.84c-2.19,7-6.52,16.97-12.69,29.14l1.19,0.65c6.23-12.261,10.54-22.15,12.75-29.21   C66.62,73.22,85.82,78.1,89.8,70.31C93.78,62.54,78.65,49.87,61.46,40.31z M85.63,65.68c-1.03,2-14.46,1.12-35.15-8.92   c-0.56-0.27-1.11-0.54-1.66-0.819c-0.45-0.221-0.89-0.44-1.33-0.671c-0.44-0.22-0.88-0.449-1.32-0.68   c-0.55-0.28-1.09-0.57-1.63-0.87C24.28,42.83,15.7,32.46,16.72,30.46c1-1.96,13.84-1.16,33.71,8.23c-0.58,2.24-0.89,4.12-0.92,5.61   v0.44c-1.07,0.13-2.07,0.58-2.88,1.31l-0.28,0.25c-0.15,0.17-0.3,0.34-0.44,0.52c-0.2,0.27-0.37,0.53-0.51,0.8   c-0.04,0.08-0.08,0.15-0.1,0.24l-0.09,0.27l0.19,0.2c0.41,0.46,1.63,1.62,4.15,2.91c2.53,1.29,4.181,1.59,4.79,1.67l0.28,0.03   l0.16-0.23c0.06-0.07,0.1-0.15,0.14-0.229c0.14-0.271,0.25-0.551,0.35-0.881c0.07-0.21,0.11-0.43,0.16-0.66l0.07-0.36l-0.03-0.01   c0.12-1.09-0.109-2.16-0.63-3.1c0.12-0.08,0.24-0.18,0.37-0.27c1.18-0.88,2.521-2.24,4-4.02C78.47,53.79,86.62,63.72,85.63,65.68z"></path></g></svg>