<?xml version="1.0" encoding="UTF-8"?>
<svg width="68px" height="68px" viewBox="0 0 68 68" version="1.1" xmlns="http://www.w3.org/2000/svg" xmlns:xlink="http://www.w3.org/1999/xlink">
    <!-- Generator: Sketch 51 (57462) - http://www.bohemiancoding.com/sketch -->
    <title>Untitled</title>
    <desc>Created with Sketch.</desc>
    <defs>
        <linearGradient x1="100%" y1="0%" x2="0%" y2="100%" id="linearGradient-1">
            <stop stop-color="#515151" offset="0%"></stop>
            <stop stop-color="#000000" offset="100%"></stop>
        </linearGradient>
    </defs>
    <g id="Page-1" stroke="none" stroke-width="1" fill="none" fill-rule="evenodd">
        <g id="quasars" fill-rule="nonzero">
            <rect id="Rectangle-path" fill="url(#linearGradient-1)" x="0" y="0" width="68" height="68" rx="5"></rect>
            <g id="Group" transform="translate(5.710000, 3.640000)" fill="#FFFFFF">
                <g id="Shape">
                    <path d="M36.1974,23.6739 C39.2748,19.4649 43.0767,12.972 47.4375,4.4505 C47.955,3.4431 48.4794,2.3943 49.0107,1.3179 L48.1827,0.8763 C47.6652,1.9182 47.1408,2.967 46.6026,4.0227 C41.5587,13.8828 37.9155,19.734 35.3625,23.2116 C34.7898,23.9844 34.2723,24.6399 33.8031,25.1988 C32.7129,26.496 31.8987,27.2481 31.31841,27.6828 C31.23561,27.7449 31.1535,27.807 31.07691,27.8553 C30.97341,27.9312 30.86991,27.9933 30.77331,28.0485 C30.67671,28.1244 30.55941,28.1865 30.4359,28.221 C30.4359,28.2279 30.4359,28.2279 30.42831,28.221 C30.1461,28.3176 29.8287,28.3038 29.5458,28.1589 C29.256,28.0071 29.0628,27.7656 28.9731,27.4827 C28.9662,27.4758 28.9662,27.4758 28.9731,27.4689 C28.9317,27.3516 28.911,27.2274 28.9179,27.1101 C28.9041,26.9997 28.8972,26.8686 28.8903,26.7375 C28.8903,26.6478 28.8834,26.5443 28.8834,26.4408 C28.9041,25.7163 29.0352,24.6192 29.4492,22.9701 C29.62929,22.2663 29.8563,21.4659 30.15369,20.5482 C31.44399,16.5048 33.99009,10.2603 38.88909,0.6555 L38.06109,0.207 C33.8238,8.5215 30.8706,15.2559 29.2905,20.1411 C16.9947,14.3934 3.7881,11.0469 1.0488,16.4151 C-1.6974,21.7902 8.7837,30.5532 20.6793,37.1634 C17.5398,41.3586 13.6344,47.99571 9.1425,56.7732 C8.5974,57.8427 8.0385,58.9536 7.4727,60.09831 L8.3007,60.5406 C8.8458,59.4297 9.4047,58.31811 9.9774,57.201 C14.4348,48.4863 18.3954,41.7864 21.5073,37.6188 C22.3491,38.0742 23.1909,38.51649 24.0327,38.94429 C24.8745,39.37899 25.7232,39.7992 26.5788,40.21389 C25.0677,45.04389 22.08,51.92319 17.8227,60.32049 L18.6438,60.76899 C22.9425,52.3089 25.9164,45.48549 27.4413,40.61409 C39.7578,46.3818 53.0058,49.749 55.752,44.3739 C58.4982,39.0126 48.0585,30.2703 36.1974,23.6739 Z M52.8747,41.1792 C52.164,42.5592 42.8973,41.952 28.6212,35.0244 C28.2348,34.8381 27.8553,34.6518 27.4758,34.45929 C27.1653,34.3068 26.8617,34.15569 26.5581,33.9963 C26.2545,33.8445 25.9509,33.68649 25.6473,33.5271 C25.2678,33.3339 24.8952,33.1338 24.5226,32.9268 C10.5432,25.4127 4.623,18.2574 5.3268,16.8774 C6.0168,15.525 14.8764,16.077 28.5867,22.5561 C28.1865,24.1017 27.9726,25.3989 27.9519,26.427 L27.9519,26.7306 C27.2136,26.8203 26.5236,27.1308 25.9647,27.6345 L25.7715,27.807 C25.668,27.9243 25.5645,28.0416 25.4679,28.1658 C25.3299,28.3521 25.2126,28.5315 25.116,28.7178 C25.0884,28.773 25.0608,28.8213 25.047,28.8834 L24.9849,29.0697 L25.116,29.2077 C25.3989,29.5251 26.2407,30.3255 27.9795,31.2156 C29.7252,32.1057 30.86439,32.3127 31.2846,32.3679 L31.4778,32.3886 L31.5882,32.2299 C31.6296,32.1816 31.6572,32.1264 31.6848,32.07189 C31.7814,31.8849 31.8573,31.6917 31.9263,31.464 C31.9746,31.3191 32.0022,31.1673 32.0367,31.0086 L32.085,30.7602 L32.0643,30.7533 C32.1471,30.0012 31.98909,29.2629 31.6296,28.6143 C31.7124,28.5591 31.7952,28.4901 31.8849,28.428 C32.6991,27.8208 33.62439,26.8824 34.6449,25.6542 C47.9343,32.9751 53.5578,39.8268 52.8747,41.1792 Z"></path>
                </g>
            </g>
        </g>
    </g>
</svg>