<?xml version="1.0" encoding="UTF-8"?>
<svg width="64px" height="64px" viewBox="0 0 64 64" version="1.1" xmlns="http://www.w3.org/2000/svg" xmlns:xlink="http://www.w3.org/1999/xlink" style="background: #FFFFFF;">
    <!-- Generator: Sketch 51 (57462) - http://www.bohemiancoding.com/sketch -->
    <title>quasars_logo</title>
    <desc>Created with Sketch.</desc>
    <defs></defs>
    <g id="Page-1" stroke="none" stroke-width="1" fill="none" fill-rule="evenodd">
        <g id="quasars" transform="translate(-2.000000, -2.000000)" fill="#000000" fill-rule="nonzero">
            <g id="Group" transform="translate(6.710000, 3.640000)">
                <g id="Shape">
                    <path d="M35.5904452,23.4669 C38.6678452,19.2579 42.4697452,12.765 46.8305452,4.2435 C47.3480452,3.2361 47.8724452,2.1873 48.4037452,1.1109 L47.5757452,0.6693 C47.0582452,1.7112 46.5338452,2.76 45.9956452,3.8157 C40.9517452,13.6758 37.3085452,19.527 34.7555452,23.0046 C34.1828452,23.7774 33.6653452,24.4329 33.1961452,24.9918 C32.1059452,26.289 31.2917452,27.0411 30.7114552,27.4758 C30.6286552,27.5379 30.5465452,27.6 30.4699552,27.6483 C30.3664552,27.7242 30.2629552,27.7863 30.1663552,27.8415 C30.0697552,27.9174 29.9524552,27.9795 29.8289452,28.014 C29.8289452,28.0209 29.8289452,28.0209 29.8213552,28.014 C29.5391452,28.1106 29.2217452,28.0968 28.9388452,27.9519 C28.6490452,27.8001 28.4558452,27.5586 28.3661452,27.2757 C28.3592452,27.2688 28.3592452,27.2688 28.3661452,27.2619 C28.3247452,27.1446 28.3040452,27.0204 28.3109452,26.9031 C28.2971452,26.7927 28.2902452,26.6616 28.2833452,26.5305 C28.2833452,26.4408 28.2764452,26.3373 28.2764452,26.2338 C28.2971452,25.5093 28.4282452,24.4122 28.8422452,22.7631 C29.0223352,22.0593 29.2493452,21.2589 29.5467352,20.3412 C30.8370352,16.2978 33.3831352,10.0533 38.2821352,0.4485 L37.4541352,0 C33.2168452,8.3145 30.2636452,15.0489 28.6835452,19.9341 C16.3877452,14.1864 3.18114523,10.8399 0.441845229,16.2081 C-2.30435477,21.5832 8.17674523,30.3462 20.0723452,36.9564 C16.9328452,41.1516 13.0274452,47.78871 8.53554523,56.5662 C7.99044523,57.6357 7.43154523,58.7466 6.86574523,59.89131 L7.69374523,60.3336 C8.23884523,59.2227 8.79774523,58.11111 9.37044523,56.994 C13.8278452,48.2793 17.7884452,41.5794 20.9003452,37.4118 C21.7421452,37.8672 22.5839452,38.30949 23.4257452,38.73729 C24.2675452,39.17199 25.1162452,39.5922 25.9718452,40.00689 C24.4607452,44.83689 21.4730452,51.71619 17.2157452,60.11349 L18.0368452,60.56199 C22.3355452,52.1019 25.3094452,45.27849 26.8343452,40.40709 C39.1508452,46.1748 52.3988452,49.542 55.1450452,44.1669 C57.8912452,38.8056 47.4515452,30.0633 35.5904452,23.4669 Z M52.2677452,40.9722 C51.5570452,42.3522 42.2903452,41.745 28.0142452,34.8174 C27.6278452,34.6311 27.2483452,34.4448 26.8688452,34.25229 C26.5583452,34.0998 26.2547452,33.94869 25.9511452,33.7893 C25.6475452,33.6375 25.3439452,33.47949 25.0403452,33.3201 C24.6608452,33.1269 24.2882452,32.9268 23.9156452,32.7198 C9.93624523,25.2057 4.01604523,18.0504 4.71984523,16.6704 C5.40984523,15.318 14.2694452,15.87 27.9797452,22.3491 C27.5795452,23.8947 27.3656452,25.1919 27.3449452,26.22 L27.3449452,26.5236 C26.6066452,26.6133 25.9166452,26.9238 25.3577452,27.4275 L25.1645452,27.6 C25.0610452,27.7173 24.9575452,27.8346 24.8609452,27.9588 C24.7229452,28.1451 24.6056452,28.3245 24.5090452,28.5108 C24.4814452,28.566 24.4538452,28.6143 24.4400452,28.6764 L24.3779452,28.8627 L24.5090452,29.0007 C24.7919452,29.3181 25.6337452,30.1185 27.3725452,31.0086 C29.1182452,31.8987 30.2574352,32.1057 30.6776452,32.1609 L30.8708452,32.1816 L30.9812452,32.0229 C31.0226452,31.9746 31.0502452,31.9194 31.0778452,31.86489 C31.1744452,31.6779 31.2503452,31.4847 31.3193452,31.257 C31.3676452,31.1121 31.3952452,30.9603 31.4297452,30.8016 L31.4780452,30.5532 L31.4573452,30.5463 C31.5401452,29.7942 31.3821352,29.0559 31.0226452,28.4073 C31.1054452,28.3521 31.1882452,28.2831 31.2779452,28.221 C32.0921452,27.6138 33.0174352,26.6754 34.0379452,25.4472 C47.3273452,32.7681 52.9508452,39.6198 52.2677452,40.9722 Z"></path>
                </g>
            </g>
        </g>
    </g>
</svg>